<?xml version="1.0" encoding="utf-8"?>
<!-- Generator: Adobe Illustrator 21.0.0, SVG Export Plug-In . SVG Version: 6.00 Build 0)  -->
<svg version="1.1" id="Layer_1" xmlns="http://www.w3.org/2000/svg" xmlns:xlink="http://www.w3.org/1999/xlink" x="0px" y="0px"
	 viewBox="0 0 476.4 72.5" style="enable-background:new 0 0 476.4 72.5;" xml:space="preserve">
<style type="text/css">
	.st0{fill:#EE322E;}
	.st1{fill:#3751A3;}
</style>
<g>
	<path class="st0" d="M13.4,0.3c1.7,0,3,1.3,3,3v64c0,1.7-1.3,3-3,3c-1.7,0-3-1.3-3-3v-64C10.4,1.6,11.7,0.3,13.4,0.3z M57.5,17.9
		c0,9.4-6.9,16.3-19.5,16.3H23.6c-1.7,0-3-1.3-3-3c0-1.7,1.3-3,3-3H38c9.1,0,13.5-4.3,13.5-10.3c0-6.7-3.2-11.6-13.5-11.6H22.7
		c-1.7,0-3-1.3-3-3s1.3-3,3-3H38C52.9,0.3,57.5,9.2,57.5,17.9z M63.3,48.7c0,13.6-9.2,21.5-23.8,21.5H23.4c-1.7,0-3-1.3-3-3
		s1.3-3,3-3h16.1c8.5,0,17.8-3.1,17.8-15.5v-0.1c0-5.4-1.8-9.1-4.2-11.2c-1.3-1.1-1.4-3-0.3-4.3c1.1-1.3,3-1.4,4.3-0.3
		c4,3.5,6.3,9.1,6.3,15.8L63.3,48.7z"/>
	<path class="st0" d="M81.1,0.2c1.7,0,3,1.3,3,3v64c0,1.7-1.3,3-3,3c-1.7,0-3-1.3-3-3v-64C78.1,1.5,79.4,0.2,81.1,0.2z M86.5,67.2
		c0-1.7,1.3-3,3-3h32c1.7,0,3,1.3,3,3s-1.3,3-3,3h-32C87.8,70.2,86.5,68.9,86.5,67.2z M124.4,3.2c0,1.7-1.3,3-3,3H89.7
		c-1.7,0-3-1.3-3-3s1.3-3,3-3h31.7C123.1,0.2,124.4,1.5,124.4,3.2z M86.7,32.8c0-1.7,1.3-3,3-3h25.8c1.7,0,3,1.3,3,3
		c0,1.7-1.3,3-3,3H89.7C88,35.8,86.7,34.5,86.7,32.8z"/>
	<path class="st0" d="M158.9,12.7c1.5,0.7,2.2,2.5,1.5,4l-22.2,51.8c-0.7,1.5-2.5,2.2-4,1.5c-1.5-0.7-2.2-2.5-1.5-4l22.2-51.8
		C155.6,12.7,157.4,12,158.9,12.7z M173.8,44.6c0,1.7-1.3,3-3,3h-16c-1.7,0-3-1.3-3-3s1.3-3,3-3h16
		C172.5,41.6,173.8,42.9,173.8,44.6z M191.6,70c-1.5,0.7-3.3,0-4-1.5l-27.4-64c-0.7-1.5,0-3.3,1.5-4s3.3,0,4,1.5l27.4,64
		C193.8,67.5,193.1,69.3,191.6,70z"/>
	<path class="st0" d="M251.1,3.2c0,1.7-1.3,3-3,3h-46.9c-1.7,0-3-1.3-3-3s1.3-3,3-3h46.9C249.8,0.2,251.1,1.5,251.1,3.2z M224.6,9.2
		c1.7,0,3,1.3,3,3v55c0,1.7-1.3,3-3,3s-3-1.3-3-3v-55C221.6,10.5,222.9,9.2,224.6,9.2z"/>
	<path class="st1" d="M264.9,70.2c-1.7,0-3-1.3-3-3v-64c0-1.7,1.3-3,3-3s3,1.3,3,3v64C267.9,68.9,266.6,70.2,264.9,70.2z
		 M272.2,17.1c1.5-0.7,3.3-0.1,4,1.4l24,47.5c0.7,1.5,0.1,3.3-1.4,4c-1.5,0.7-3.3,0.1-4-1.4l-24-47.5
		C270.1,19.6,270.7,17.8,272.2,17.1z M332.8,0.5c1.5,0.8,2.1,2.6,1.3,4.1L307.4,56c-0.8,1.5-2.6,2.1-4.1,1.3s-2.1-2.6-1.3-4.1
		l26.7-51.4C329.5,0.3,331.3-0.3,332.8,0.5z M331.4,70.2c-1.7,0-3-1.3-3-3V22.6c0-1.7,1.3-3,3-3s3,1.3,3,3v44.6
		C334.4,68.9,333.1,70.2,331.4,70.2z"/>
	<path class="st1" d="M371,12.7c1.5,0.7,2.2,2.5,1.5,4l-22.2,51.8c-0.7,1.5-2.5,2.2-4,1.5c-1.5-0.7-2.2-2.5-1.5-4L367,14.2
		C367.7,12.7,369.5,12,371,12.7z M385.9,44.6c0,1.7-1.3,3-3,3h-16c-1.7,0-3-1.3-3-3s1.3-3,3-3h16C384.6,41.6,385.9,42.9,385.9,44.6z
		 M403.7,70c-1.5,0.7-3.3,0-4-1.5l-27.4-64c-0.7-1.5,0-3.3,1.5-4s3.3,0,4,1.5l27.4,64C405.9,67.5,405.2,69.3,403.7,70z"/>
	<path class="st1" d="M419.8,70.2c-1.7,0-3-1.3-3-3v-44c0-1.7,1.3-3,3-3s3,1.3,3,3v44C422.8,68.9,421.5,70.2,419.8,70.2z M418.2,0.7
		c1.4-0.9,3.3-0.5,4.2,0.9l43.3,64c0.9,1.4,0.5,3.3-0.9,4.2c-1.4,0.9-3.3,0.5-4.2-0.9l-43.3-64C416.4,3.5,416.8,1.6,418.2,0.7z
		 M463.1,50.2c-1.7,0-3-1.3-3-3v-44c0-1.7,1.3-3,3-3s3,1.3,3,3v44C466.1,48.9,464.8,50.2,463.1,50.2z"/>
</g>
</svg>
